<svg width="40" height="40" viewBox="0 0 40 40" fill="none" xmlns="http://www.w3.org/2000/svg">
<path d="M20 0C22.6264 0 25.2272 0.517315 27.6537 1.52241C30.0802 2.5275 32.285 4.00069 34.1421 5.85786C35.9993 7.71504 37.4725 9.91982 38.4776 12.3463C39.4827 14.7728 40 17.3736 40 20C40 25.3043 37.8929 30.3914 34.1421 34.1421C30.3914 37.8929 25.3043 40 20 40C17.3736 40 14.7728 39.4827 12.3463 38.4776C9.91982 37.4725 7.71504 35.9993 5.85786 34.1421C2.10714 30.3914 0 25.3043 0 20C0 14.6957 2.10714 9.60859 5.85786 5.85786C9.60859 2.10714 14.6957 0 20 0ZM18 10C16.9391 10 15.9217 10.4214 15.1716 11.1716C14.4214 11.9217 14 12.9391 14 14V30H18V22H22V30H26V14C26 12.9391 25.5786 11.9217 24.8284 11.1716C24.0783 10.4214 23.0609 10 22 10H18ZM18 14H22V18H18V14Z" fill="#585123"/>
</svg>
