<svg id="Layer_1" data-name="Layer 1" xmlns="http://www.w3.org/2000/svg" viewBox="0 0 2000 3140.51"><defs><style>.cls-1{fill:#ffeb3f;}.cls-2{fill:none;stroke:#fff;stroke-linecap:round;stroke-miterlimit:10;stroke-width:15px;}</style></defs><rect class="cls-1" y="140.51" width="2000" height="3000"/><path class="cls-2" d="M542.44,1717.46c-41.44-49.29-73.77-104.93-65.74-118.53,51.46-87.18,244.93-382.18,472.19-316.39,191.13,55.34,207.15,25.59,201.05,4.48a32.64,32.64,0,0,0-16-19.43C1067.32,1231.8,602,979.45,619.74,927.37,638.81,871.29,640,825.6,935.43,935.2s449.11,6.8,575.42,279.89c125.76,271.91-1.22,233.35-223.92,404.46a33.18,33.18,0,0,1-7.56,4.38c-17.9,7.38-88.43,29-236.06-9.55-130.36-34-144.3,18.24-143.12,46.5.46,10.86-26.23,76.92-59.45,94.31L718.81,1819a33.41,33.41,0,0,1-43-1.8S583.88,1766.75,542.44,1717.46Z" transform="translate(0 140.51)"/><path class="cls-2" d="M1402.77-47.75c44.49,41.88,81.11,90.74,75,104.45-38.86,87.84-188.62,387.21-410,350.3-186.24-31-198-1.23-190,18a30.91,30.91,0,0,0,17.27,16.53c66.69,26.38,533,212.81,522.1,263.85-11.77,55-7.85,98.15-298.36,27.48S694.8,776,545.61,532.63C397.06,290.26,521,312.58,712,126.73a31.59,31.59,0,0,1,6.64-5c16-8.93,80.13-37.07,223.52-17.07,126.61,17.67,134-33.12,129.74-59.62-1.63-10.19,16.23-75.39,45.62-95.45L1225.34-124a31.73,31.73,0,0,1,40.73-3S1358.28-89.63,1402.77-47.75Z" transform="translate(0 140.51)"/></svg>