<svg width="605" height="458" viewBox="0 0 605 458" fill="none" xmlns="http://www.w3.org/2000/svg">
<path d="M6 58.5L27.25 39.0144L69.75 39.0144L91 58.5L69.75 77.9856L27.25 77.9856L6 58.5Z" fill="#4AA8FF"/>
<path d="M224 1.5L222.5 3V143L224 144.5H390L391.5 143V3L390 1.5L224 1.5Z" stroke="white" stroke-width="3" stroke-linejoin="bevel"/>
<path d="M271 272L292.25 252.947L334.75 252.947L356 272L334.75 291.053L292.25 291.053L271 272Z" fill="url(#paint0_linear_169_208)"/>
<path d="M444.367 223.564V223.575H444.355V223.564H444.367ZM452.691 223.564V223.575H452.679V223.564H452.691ZM436.044 223.564V223.575H436.032V223.564H436.044Z" stroke="white" stroke-width="3" stroke-linejoin="round"/>
<path d="M444.367 324.467V324.478H444.355V324.467H444.367ZM452.691 324.467V324.478H452.679V324.467H452.691ZM436.044 324.467V324.478H436.032V324.467H436.044Z" stroke="white" stroke-width="3" stroke-linejoin="round"/>
<path d="M444.367 274.015V274.027H444.355V274.015H444.367ZM452.691 274.015V274.027H452.679V274.015H452.691ZM436.044 274.015V274.027H436.032V274.015H436.044Z" stroke="white" stroke-width="3" stroke-linejoin="round"/>
<path d="M444.367 374.919V374.93H444.355V374.919H444.367ZM452.691 374.919V374.93H452.679V374.919H452.691ZM436.044 374.919V374.93H436.032V374.919H436.044Z" stroke="white" stroke-width="3" stroke-linejoin="round"/>
<path d="M419.396 223.564V223.575H419.385V223.564H419.396ZM427.72 223.564V223.575H427.708V223.564H427.72ZM411.073 223.564V223.575H411.061V223.564H411.073Z" stroke="white" stroke-width="3" stroke-linejoin="round"/>
<path d="M419.396 324.467V324.478H419.385V324.467H419.396ZM427.72 324.467V324.478H427.708V324.467H427.72ZM411.073 324.467V324.478H411.061V324.467H411.073Z" stroke="white" stroke-width="3" stroke-linejoin="round"/>
<path d="M419.396 274.015V274.027H419.385V274.015H419.396ZM427.72 274.015V274.027H427.708V274.015H427.72ZM411.073 274.015V274.027H411.061V274.015H411.073Z" stroke="white" stroke-width="3" stroke-linejoin="round"/>
<path d="M419.396 374.919V374.93H419.385V374.919H419.396ZM427.72 374.919V374.93H427.708V374.919H427.72ZM411.073 374.919V374.93H411.061V374.919H411.073Z" stroke="white" stroke-width="3" stroke-linejoin="round"/>
<path d="M444.367 249.405V249.416H444.355V249.405H444.367ZM452.691 249.405V249.416H452.679V249.405H452.691ZM436.044 249.405V249.416H436.032V249.405H436.044Z" stroke="white" stroke-width="3" stroke-linejoin="round"/>
<path d="M444.367 350.308V350.319H444.355V350.308H444.367ZM452.691 350.308V350.319H452.679V350.308H452.691ZM436.044 350.308V350.319H436.032V350.308H436.044Z" stroke="white" stroke-width="3" stroke-linejoin="round"/>
<path d="M444.367 299.856V299.867H444.355V299.856H444.367ZM452.691 299.856V299.867H452.679V299.856H452.691ZM436.044 299.856V299.867H436.032V299.856H436.044Z" stroke="white" stroke-width="3" stroke-linejoin="round"/>
<path d="M444.367 400.759V400.77H444.355V400.759H444.367ZM452.691 400.759V400.77H452.679V400.759H452.691ZM436.044 400.759V400.77H436.032V400.759H436.044Z" stroke="white" stroke-width="3" stroke-linejoin="round"/>
<path d="M419.396 249.405V249.416H419.385V249.405H419.396ZM427.72 249.405V249.416H427.708V249.405H427.72ZM411.073 249.405V249.416H411.061V249.405H411.073Z" stroke="white" stroke-width="3" stroke-linejoin="round"/>
<path d="M419.396 350.308V350.319H419.385V350.308H419.396ZM427.72 350.308V350.319H427.708V350.308H427.72ZM411.073 350.308V350.319H411.061V350.308H411.073Z" stroke="white" stroke-width="3" stroke-linejoin="round"/>
<path d="M419.396 299.856V299.867H419.385V299.856H419.396ZM427.72 299.856V299.867H427.708V299.856H427.72ZM411.073 299.856V299.867H411.061V299.856H411.073Z" stroke="white" stroke-width="3" stroke-linejoin="round"/>
<path d="M419.396 400.759V400.77H419.385V400.759H419.396ZM427.72 400.759V400.77H427.708V400.759H427.72ZM411.073 400.759V400.77H411.061V400.759H411.073Z" stroke="white" stroke-width="3" stroke-linejoin="round"/>
<path d="M444.367 232.178V232.189H444.355V232.178H444.367ZM452.691 232.178V232.189H452.679V232.178H452.691ZM436.044 232.178V232.189H436.032V232.178H436.044Z" stroke="white" stroke-width="3" stroke-linejoin="round"/>
<path d="M444.367 333.081V333.092H444.355V333.081H444.367ZM452.691 333.081V333.092H452.679V333.081H452.691ZM436.044 333.081V333.092H436.032V333.081H436.044Z" stroke="white" stroke-width="3" stroke-linejoin="round"/>
<path d="M444.367 282.629V282.64H444.355V282.629H444.367ZM452.691 282.629V282.64H452.679V282.629H452.691ZM436.044 282.629V282.64H436.032V282.629H436.044Z" stroke="white" stroke-width="3" stroke-linejoin="round"/>
<path d="M444.367 383.532V383.543H444.355V383.532H444.367ZM452.691 383.532V383.543H452.679V383.532H452.691ZM436.044 383.532V383.543H436.032V383.532H436.044Z" stroke="white" stroke-width="3" stroke-linejoin="round"/>
<path d="M419.396 232.178V232.189H419.385V232.178H419.396ZM427.72 232.178V232.189H427.708V232.178H427.72ZM411.073 232.178V232.189H411.061V232.178H411.073Z" stroke="white" stroke-width="3" stroke-linejoin="round"/>
<path d="M419.396 333.081V333.092H419.385V333.081H419.396ZM427.72 333.081V333.092H427.708V333.081H427.72ZM411.073 333.081V333.092H411.061V333.081H411.073Z" stroke="white" stroke-width="3" stroke-linejoin="round"/>
<path d="M419.396 282.629V282.64H419.385V282.629H419.396ZM427.72 282.629V282.64H427.708V282.629H427.72ZM411.073 282.629V282.64H411.061V282.629H411.073Z" stroke="white" stroke-width="3" stroke-linejoin="round"/>
<path d="M419.396 383.532V383.543H419.385V383.532H419.396ZM427.72 383.532V383.543H427.708V383.532H427.72ZM411.073 383.532V383.543H411.061V383.532H411.073Z" stroke="white" stroke-width="3" stroke-linejoin="round"/>
<path d="M444.367 258.019V258.03H444.355V258.019H444.367ZM452.691 258.019V258.03H452.679V258.019H452.691ZM436.044 258.019V258.03H436.032V258.019H436.044Z" stroke="white" stroke-width="3" stroke-linejoin="round"/>
<path d="M444.367 358.921V358.933H444.355V358.921H444.367ZM452.691 358.921V358.933H452.679V358.921H452.691ZM436.044 358.921V358.933H436.032V358.921H436.044Z" stroke="white" stroke-width="3" stroke-linejoin="round"/>
<path d="M444.367 308.47V308.481H444.355V308.47H444.367ZM452.691 308.47V308.481H452.679V308.47H452.691ZM436.044 308.47V308.481H436.032V308.47H436.044Z" stroke="white" stroke-width="3" stroke-linejoin="round"/>
<path d="M444.367 409.373V409.384H444.355V409.373H444.367ZM452.691 409.373V409.384H452.679V409.373H452.691ZM436.044 409.373V409.384H436.032V409.373H436.044Z" stroke="white" stroke-width="3" stroke-linejoin="round"/>
<path d="M419.396 258.019V258.03H419.385V258.019H419.396ZM427.72 258.019V258.03H427.708V258.019H427.72ZM411.073 258.019V258.03H411.061V258.019H411.073Z" stroke="white" stroke-width="3" stroke-linejoin="round"/>
<path d="M419.396 358.921V358.933H419.385V358.921H419.396ZM427.72 358.921V358.933H427.708V358.921H427.72ZM411.073 358.921V358.933H411.061V358.921H411.073Z" stroke="white" stroke-width="3" stroke-linejoin="round"/>
<path d="M419.396 308.47V308.481H419.385V308.47H419.396ZM427.72 308.47V308.481H427.708V308.47H427.72ZM411.073 308.47V308.481H411.061V308.47H411.073Z" stroke="white" stroke-width="3" stroke-linejoin="round"/>
<path d="M419.396 409.373V409.384H419.385V409.373H419.396ZM427.72 409.373V409.384H427.708V409.373H427.72ZM411.073 409.373V409.384H411.061V409.373H411.073Z" stroke="white" stroke-width="3" stroke-linejoin="round"/>
<path d="M444.367 240.791V240.802H444.355V240.791H444.367ZM452.691 240.791V240.802H452.679V240.791H452.691ZM436.044 240.791V240.802H436.032V240.791H436.044Z" stroke="white" stroke-width="3" stroke-linejoin="round"/>
<path d="M444.367 341.694V341.705H444.355V341.694H444.367ZM452.691 341.694V341.705H452.679V341.694H452.691ZM436.044 341.694V341.705H436.032V341.694H436.044Z" stroke="white" stroke-width="3" stroke-linejoin="round"/>
<path d="M444.367 291.243V291.254H444.355V291.243H444.367ZM452.691 291.243V291.254H452.679V291.243H452.691ZM436.044 291.243V291.254H436.032V291.243H436.044Z" stroke="white" stroke-width="3" stroke-linejoin="round"/>
<path d="M444.367 392.146V392.157H444.355V392.146H444.367ZM452.691 392.146V392.157H452.679V392.146H452.691ZM436.044 392.146V392.157H436.032V392.146H436.044Z" stroke="white" stroke-width="3" stroke-linejoin="round"/>
<path d="M419.396 240.791V240.802H419.385V240.791H419.396ZM427.72 240.791V240.802H427.708V240.791H427.72ZM411.073 240.791V240.802H411.061V240.791H411.073Z" stroke="white" stroke-width="3" stroke-linejoin="round"/>
<path d="M419.396 341.694V341.705H419.385V341.694H419.396ZM427.72 341.694V341.705H427.708V341.694H427.72ZM411.073 341.694V341.705H411.061V341.694H411.073Z" stroke="white" stroke-width="3" stroke-linejoin="round"/>
<path d="M419.396 291.243V291.254H419.385V291.243H419.396ZM427.72 291.243V291.254H427.708V291.243H427.72ZM411.073 291.243V291.254H411.061V291.243H411.073Z" stroke="white" stroke-width="3" stroke-linejoin="round"/>
<path d="M419.396 392.146V392.157H419.385V392.146H419.396ZM427.72 392.146V392.157H427.708V392.146H427.72ZM411.073 392.146V392.157H411.061V392.146H411.073Z" stroke="white" stroke-width="3" stroke-linejoin="round"/>
<path d="M444.367 266.632V266.643H444.355V266.632H444.367ZM452.691 266.632V266.643H452.679V266.632H452.691ZM436.044 266.632V266.643H436.032V266.632H436.044Z" stroke="white" stroke-width="3" stroke-linejoin="round"/>
<path d="M444.367 367.535V367.546H444.355V367.535H444.367ZM452.691 367.535V367.546H452.679V367.535H452.691ZM436.044 367.535V367.546H436.032V367.535H436.044Z" stroke="white" stroke-width="3" stroke-linejoin="round"/>
<path d="M444.367 317.084V317.095H444.355V317.084H444.367ZM452.691 317.084V317.095H452.679V317.084H452.691ZM436.044 317.084V317.095H436.032V317.084H436.044Z" stroke="white" stroke-width="3" stroke-linejoin="round"/>
<path d="M444.367 417.987V417.998H444.355V417.987H444.367ZM452.691 417.987V417.998H452.679V417.987H452.691ZM436.044 417.987V417.998H436.032V417.987H436.044Z" stroke="white" stroke-width="3" stroke-linejoin="round"/>
<path d="M419.396 266.632V266.643H419.385V266.632H419.396ZM427.72 266.632V266.643H427.708V266.632H427.72ZM411.073 266.632V266.643H411.061V266.632H411.073Z" stroke="white" stroke-width="3" stroke-linejoin="round"/>
<path d="M419.396 367.535V367.546H419.385V367.535H419.396ZM427.72 367.535V367.546H427.708V367.535H427.72ZM411.073 367.535V367.546H411.061V367.535H411.073Z" stroke="white" stroke-width="3" stroke-linejoin="round"/>
<path d="M419.396 317.084V317.095H419.385V317.084H419.396ZM427.72 317.084V317.095H427.708V317.084H427.72ZM411.073 317.084V317.095H411.061V317.084H411.073Z" stroke="white" stroke-width="3" stroke-linejoin="round"/>
<path d="M419.396 417.987V417.998H419.385V417.987H419.396ZM427.72 417.987V417.998H427.708V417.987H427.72ZM411.073 417.987V417.998H411.061V417.987H411.073Z" stroke="white" stroke-width="3" stroke-linejoin="round"/>
<path d="M544.245 223.564V223.575H544.233V223.564H544.245ZM552.569 223.564V223.575H552.557V223.564H552.569ZM535.922 223.564V223.575H535.91V223.564H535.922Z" stroke="white" stroke-width="3" stroke-linejoin="round"/>
<path d="M544.245 324.467V324.478H544.233V324.467H544.245ZM552.569 324.467V324.478H552.557V324.467H552.569ZM535.922 324.467V324.478H535.91V324.467H535.922Z" stroke="white" stroke-width="3" stroke-linejoin="round"/>
<path d="M544.245 274.015V274.027H544.233V274.015H544.245ZM552.569 274.015V274.027H552.557V274.015H552.569ZM535.922 274.015V274.027H535.91V274.015H535.922Z" stroke="white" stroke-width="3" stroke-linejoin="round"/>
<path d="M544.245 374.919V374.93H544.233V374.919H544.245ZM552.569 374.919V374.93H552.557V374.919H552.569ZM535.922 374.919V374.93H535.91V374.919H535.922Z" stroke="white" stroke-width="3" stroke-linejoin="round"/>
<path d="M519.274 223.564V223.575H519.263V223.564H519.274ZM527.598 223.564V223.575H527.586V223.564H527.598ZM510.951 223.564V223.575H510.939V223.564H510.951Z" stroke="white" stroke-width="3" stroke-linejoin="round"/>
<path d="M519.274 324.467V324.478H519.263V324.467H519.274ZM527.598 324.467V324.478H527.586V324.467H527.598ZM510.951 324.467V324.478H510.939V324.467H510.951Z" stroke="white" stroke-width="3" stroke-linejoin="round"/>
<path d="M519.274 274.015V274.027H519.263V274.015H519.274ZM527.598 274.015V274.027H527.586V274.015H527.598ZM510.951 274.015V274.027H510.939V274.015H510.951Z" stroke="white" stroke-width="3" stroke-linejoin="round"/>
<path d="M519.274 374.919V374.93H519.263V374.919H519.274ZM527.598 374.919V374.93H527.586V374.919H527.598ZM510.951 374.919V374.93H510.939V374.919H510.951Z" stroke="white" stroke-width="3" stroke-linejoin="round"/>
<path d="M544.245 249.405V249.416H544.233V249.405H544.245ZM552.569 249.405V249.416H552.557V249.405H552.569ZM535.922 249.405V249.416H535.91V249.405H535.922Z" stroke="white" stroke-width="3" stroke-linejoin="round"/>
<path d="M544.245 350.308V350.319H544.233V350.308H544.245ZM552.569 350.308V350.319H552.557V350.308H552.569ZM535.922 350.308V350.319H535.91V350.308H535.922Z" stroke="white" stroke-width="3" stroke-linejoin="round"/>
<path d="M544.245 299.856V299.867H544.233V299.856H544.245ZM552.569 299.856V299.867H552.557V299.856H552.569ZM535.922 299.856V299.867H535.91V299.856H535.922Z" stroke="white" stroke-width="3" stroke-linejoin="round"/>
<path d="M544.245 400.759V400.77H544.233V400.759H544.245ZM552.569 400.759V400.77H552.557V400.759H552.569ZM535.922 400.759V400.77H535.91V400.759H535.922Z" stroke="white" stroke-width="3" stroke-linejoin="round"/>
<path d="M519.274 249.405V249.416H519.263V249.405H519.274ZM527.598 249.405V249.416H527.586V249.405H527.598ZM510.951 249.405V249.416H510.939V249.405H510.951Z" stroke="white" stroke-width="3" stroke-linejoin="round"/>
<path d="M519.274 350.308V350.319H519.263V350.308H519.274ZM527.598 350.308V350.319H527.586V350.308H527.598ZM510.951 350.308V350.319H510.939V350.308H510.951Z" stroke="white" stroke-width="3" stroke-linejoin="round"/>
<path d="M519.274 299.856V299.867H519.263V299.856H519.274ZM527.598 299.856V299.867H527.586V299.856H527.598ZM510.951 299.856V299.867H510.939V299.856H510.951Z" stroke="white" stroke-width="3" stroke-linejoin="round"/>
<path d="M519.274 400.759V400.77H519.263V400.759H519.274ZM527.598 400.759V400.77H527.586V400.759H527.598ZM510.951 400.759V400.77H510.939V400.759H510.951Z" stroke="white" stroke-width="3" stroke-linejoin="round"/>
<path d="M544.245 232.178V232.189H544.233V232.178H544.245ZM552.569 232.178V232.189H552.557V232.178H552.569ZM535.922 232.178V232.189H535.91V232.178H535.922Z" stroke="white" stroke-width="3" stroke-linejoin="round"/>
<path d="M544.245 333.081V333.092H544.233V333.081H544.245ZM552.569 333.081V333.092H552.557V333.081H552.569ZM535.922 333.081V333.092H535.91V333.081H535.922Z" stroke="white" stroke-width="3" stroke-linejoin="round"/>
<path d="M544.245 282.629V282.64H544.233V282.629H544.245ZM552.569 282.629V282.64H552.557V282.629H552.569ZM535.922 282.629V282.64H535.91V282.629H535.922Z" stroke="white" stroke-width="3" stroke-linejoin="round"/>
<path d="M544.245 383.532V383.543H544.233V383.532H544.245ZM552.569 383.532V383.543H552.557V383.532H552.569ZM535.922 383.532V383.543H535.91V383.532H535.922Z" stroke="white" stroke-width="3" stroke-linejoin="round"/>
<path d="M519.274 232.178V232.189H519.263V232.178H519.274ZM527.598 232.178V232.189H527.586V232.178H527.598ZM510.951 232.178V232.189H510.939V232.178H510.951Z" stroke="white" stroke-width="3" stroke-linejoin="round"/>
<path d="M519.274 333.081V333.092H519.263V333.081H519.274ZM527.598 333.081V333.092H527.586V333.081H527.598ZM510.951 333.081V333.092H510.939V333.081H510.951Z" stroke="white" stroke-width="3" stroke-linejoin="round"/>
<path d="M519.274 282.629V282.64H519.263V282.629H519.274ZM527.598 282.629V282.64H527.586V282.629H527.598ZM510.951 282.629V282.64H510.939V282.629H510.951Z" stroke="white" stroke-width="3" stroke-linejoin="round"/>
<path d="M519.274 383.532V383.543H519.263V383.532H519.274ZM527.598 383.532V383.543H527.586V383.532H527.598ZM510.951 383.532V383.543H510.939V383.532H510.951Z" stroke="white" stroke-width="3" stroke-linejoin="round"/>
<path d="M544.245 258.019V258.03H544.233V258.019H544.245ZM552.569 258.019V258.03H552.557V258.019H552.569ZM535.922 258.019V258.03H535.91V258.019H535.922Z" stroke="white" stroke-width="3" stroke-linejoin="round"/>
<path d="M544.245 358.921V358.933H544.233V358.921H544.245ZM552.569 358.921V358.933H552.557V358.921H552.569ZM535.922 358.921V358.933H535.91V358.921H535.922Z" stroke="white" stroke-width="3" stroke-linejoin="round"/>
<path d="M544.245 308.47V308.481H544.233V308.47H544.245ZM552.569 308.47V308.481H552.557V308.47H552.569ZM535.922 308.47V308.481H535.91V308.47H535.922Z" stroke="white" stroke-width="3" stroke-linejoin="round"/>
<path d="M544.245 409.373V409.384H544.233V409.373H544.245ZM552.569 409.373V409.384H552.557V409.373H552.569ZM535.922 409.373V409.384H535.91V409.373H535.922Z" stroke="white" stroke-width="3" stroke-linejoin="round"/>
<path d="M519.274 258.019V258.03H519.263V258.019H519.274ZM527.598 258.019V258.03H527.586V258.019H527.598ZM510.951 258.019V258.03H510.939V258.019H510.951Z" stroke="white" stroke-width="3" stroke-linejoin="round"/>
<path d="M519.274 358.921V358.933H519.263V358.921H519.274ZM527.598 358.921V358.933H527.586V358.921H527.598ZM510.951 358.921V358.933H510.939V358.921H510.951Z" stroke="white" stroke-width="3" stroke-linejoin="round"/>
<path d="M519.274 308.47V308.481H519.263V308.47H519.274ZM527.598 308.47V308.481H527.586V308.47H527.598ZM510.951 308.47V308.481H510.939V308.47H510.951Z" stroke="white" stroke-width="3" stroke-linejoin="round"/>
<path d="M519.274 409.373V409.384H519.263V409.373H519.274ZM527.598 409.373V409.384H527.586V409.373H527.598ZM510.951 409.373V409.384H510.939V409.373H510.951Z" stroke="white" stroke-width="3" stroke-linejoin="round"/>
<path d="M544.245 240.791V240.802H544.233V240.791H544.245ZM552.569 240.791V240.802H552.557V240.791H552.569ZM535.922 240.791V240.802H535.91V240.791H535.922Z" stroke="white" stroke-width="3" stroke-linejoin="round"/>
<path d="M544.245 341.694V341.705H544.233V341.694H544.245ZM552.569 341.694V341.705H552.557V341.694H552.569ZM535.922 341.694V341.705H535.91V341.694H535.922Z" stroke="white" stroke-width="3" stroke-linejoin="round"/>
<path d="M544.245 291.243V291.254H544.233V291.243H544.245ZM552.569 291.243V291.254H552.557V291.243H552.569ZM535.922 291.243V291.254H535.91V291.243H535.922Z" stroke="white" stroke-width="3" stroke-linejoin="round"/>
<path d="M544.245 392.146V392.157H544.233V392.146H544.245ZM552.569 392.146V392.157H552.557V392.146H552.569ZM535.922 392.146V392.157H535.91V392.146H535.922Z" stroke="white" stroke-width="3" stroke-linejoin="round"/>
<path d="M519.274 240.791V240.802H519.263V240.791H519.274ZM527.598 240.791V240.802H527.586V240.791H527.598ZM510.951 240.791V240.802H510.939V240.791H510.951Z" stroke="white" stroke-width="3" stroke-linejoin="round"/>
<path d="M519.274 341.694V341.705H519.263V341.694H519.274ZM527.598 341.694V341.705H527.586V341.694H527.598ZM510.951 341.694V341.705H510.939V341.694H510.951Z" stroke="white" stroke-width="3" stroke-linejoin="round"/>
<path d="M519.274 291.243V291.254H519.263V291.243H519.274ZM527.598 291.243V291.254H527.586V291.243H527.598ZM510.951 291.243V291.254H510.939V291.243H510.951Z" stroke="white" stroke-width="3" stroke-linejoin="round"/>
<path d="M519.274 392.146V392.157H519.263V392.146H519.274ZM527.598 392.146V392.157H527.586V392.146H527.598ZM510.951 392.146V392.157H510.939V392.146H510.951Z" stroke="white" stroke-width="3" stroke-linejoin="round"/>
<path d="M544.245 266.632V266.643H544.233V266.632H544.245ZM552.569 266.632V266.643H552.557V266.632H552.569ZM535.922 266.632V266.643H535.91V266.632H535.922Z" stroke="white" stroke-width="3" stroke-linejoin="round"/>
<path d="M544.245 367.535V367.546H544.233V367.535H544.245ZM552.569 367.535V367.546H552.557V367.535H552.569ZM535.922 367.535V367.546H535.91V367.535H535.922Z" stroke="white" stroke-width="3" stroke-linejoin="round"/>
<path d="M544.245 317.084V317.095H544.233V317.084H544.245ZM552.569 317.084V317.095H552.557V317.084H552.569ZM535.922 317.084V317.095H535.91V317.084H535.922Z" stroke="white" stroke-width="3" stroke-linejoin="round"/>
<path d="M544.245 417.987V417.998H544.233V417.987H544.245ZM552.569 417.987V417.998H552.557V417.987H552.569ZM535.922 417.987V417.998H535.91V417.987H535.922Z" stroke="white" stroke-width="3" stroke-linejoin="round"/>
<path d="M519.274 266.632V266.643H519.263V266.632H519.274ZM527.598 266.632V266.643H527.586V266.632H527.598ZM510.951 266.632V266.643H510.939V266.632H510.951Z" stroke="white" stroke-width="3" stroke-linejoin="round"/>
<path d="M519.274 367.535V367.546H519.263V367.535H519.274ZM527.598 367.535V367.546H527.586V367.535H527.598ZM510.951 367.535V367.546H510.939V367.535H510.951Z" stroke="white" stroke-width="3" stroke-linejoin="round"/>
<path d="M519.274 317.084V317.095H519.263V317.084H519.274ZM527.598 317.084V317.095H527.586V317.084H527.598ZM510.951 317.084V317.095H510.939V317.084H510.951Z" stroke="white" stroke-width="3" stroke-linejoin="round"/>
<path d="M519.274 417.987V417.998H519.263V417.987H519.274ZM527.598 417.987V417.998H527.586V417.987H527.598ZM510.951 417.987V417.998H510.939V417.987H510.951Z" stroke="white" stroke-width="3" stroke-linejoin="round"/>
<path d="M494.306 223.564V223.575H494.294V223.564H494.306ZM502.63 223.564V223.575H502.618V223.564H502.63ZM485.983 223.564V223.575H485.971V223.564H485.983Z" stroke="white" stroke-width="3" stroke-linejoin="round"/>
<path d="M494.306 324.467V324.478H494.294V324.467H494.306ZM502.63 324.467V324.478H502.618V324.467H502.63ZM485.983 324.467V324.478H485.971V324.467H485.983Z" stroke="white" stroke-width="3" stroke-linejoin="round"/>
<path d="M494.306 274.015V274.027H494.294V274.015H494.306ZM502.63 274.015V274.027H502.618V274.015H502.63ZM485.983 274.015V274.027H485.971V274.015H485.983Z" stroke="white" stroke-width="3" stroke-linejoin="round"/>
<path d="M494.306 374.919V374.93H494.294V374.919H494.306ZM502.63 374.919V374.93H502.618V374.919H502.63ZM485.983 374.919V374.93H485.971V374.919H485.983Z" stroke="white" stroke-width="3" stroke-linejoin="round"/>
<path d="M469.335 223.564V223.575H469.324V223.564H469.335ZM477.659 223.564V223.575H477.647V223.564H477.659ZM461.012 223.564V223.575H461V223.564H461.012Z" stroke="white" stroke-width="3" stroke-linejoin="round"/>
<path d="M469.335 324.467V324.478H469.324V324.467H469.335ZM477.659 324.467V324.478H477.647V324.467H477.659ZM461.012 324.467V324.478H461V324.467H461.012Z" stroke="white" stroke-width="3" stroke-linejoin="round"/>
<path d="M469.335 274.015V274.027H469.324V274.015H469.335ZM477.659 274.015V274.027H477.647V274.015H477.659ZM461.012 274.015V274.027H461V274.015H461.012Z" stroke="white" stroke-width="3" stroke-linejoin="round"/>
<path d="M469.335 374.919V374.93H469.324V374.919H469.335ZM477.659 374.919V374.93H477.647V374.919H477.659ZM461.012 374.919V374.93H461V374.919H461.012Z" stroke="white" stroke-width="3" stroke-linejoin="round"/>
<path d="M494.306 249.405V249.416H494.294V249.405H494.306ZM502.63 249.405V249.416H502.618V249.405H502.63ZM485.983 249.405V249.416H485.971V249.405H485.983Z" stroke="white" stroke-width="3" stroke-linejoin="round"/>
<path d="M494.306 350.308V350.319H494.294V350.308H494.306ZM502.63 350.308V350.319H502.618V350.308H502.63ZM485.983 350.308V350.319H485.971V350.308H485.983Z" stroke="white" stroke-width="3" stroke-linejoin="round"/>
<path d="M494.306 299.856V299.867H494.294V299.856H494.306ZM502.63 299.856V299.867H502.618V299.856H502.63ZM485.983 299.856V299.867H485.971V299.856H485.983Z" stroke="white" stroke-width="3" stroke-linejoin="round"/>
<path d="M494.306 400.759V400.77H494.294V400.759H494.306ZM502.63 400.759V400.77H502.618V400.759H502.63ZM485.983 400.759V400.77H485.971V400.759H485.983Z" stroke="white" stroke-width="3" stroke-linejoin="round"/>
<path d="M469.335 249.405V249.416H469.324V249.405H469.335ZM477.659 249.405V249.416H477.647V249.405H477.659ZM461.012 249.405V249.416H461V249.405H461.012Z" stroke="white" stroke-width="3" stroke-linejoin="round"/>
<path d="M469.335 350.308V350.319H469.324V350.308H469.335ZM477.659 350.308V350.319H477.647V350.308H477.659ZM461.012 350.308V350.319H461V350.308H461.012Z" stroke="white" stroke-width="3" stroke-linejoin="round"/>
<path d="M469.335 299.856V299.867H469.324V299.856H469.335ZM477.659 299.856V299.867H477.647V299.856H477.659ZM461.012 299.856V299.867H461V299.856H461.012Z" stroke="white" stroke-width="3" stroke-linejoin="round"/>
<path d="M469.335 400.759V400.77H469.324V400.759H469.335ZM477.659 400.759V400.77H477.647V400.759H477.659ZM461.012 400.759V400.77H461V400.759H461.012Z" stroke="white" stroke-width="3" stroke-linejoin="round"/>
<path d="M494.306 232.178V232.189H494.294V232.178H494.306ZM502.63 232.178V232.189H502.618V232.178H502.63ZM485.983 232.178V232.189H485.971V232.178H485.983Z" stroke="white" stroke-width="3" stroke-linejoin="round"/>
<path d="M494.306 333.081V333.092H494.294V333.081H494.306ZM502.63 333.081V333.092H502.618V333.081H502.63ZM485.983 333.081V333.092H485.971V333.081H485.983Z" stroke="white" stroke-width="3" stroke-linejoin="round"/>
<path d="M494.306 282.629V282.64H494.294V282.629H494.306ZM502.63 282.629V282.64H502.618V282.629H502.63ZM485.983 282.629V282.64H485.971V282.629H485.983Z" stroke="white" stroke-width="3" stroke-linejoin="round"/>
<path d="M494.306 383.532V383.543H494.294V383.532H494.306ZM502.63 383.532V383.543H502.618V383.532H502.63ZM485.983 383.532V383.543H485.971V383.532H485.983Z" stroke="white" stroke-width="3" stroke-linejoin="round"/>
<path d="M469.335 232.178V232.189H469.324V232.178H469.335ZM477.659 232.178V232.189H477.647V232.178H477.659ZM461.012 232.178V232.189H461V232.178H461.012Z" stroke="white" stroke-width="3" stroke-linejoin="round"/>
<path d="M469.335 333.081V333.092H469.324V333.081H469.335ZM477.659 333.081V333.092H477.647V333.081H477.659ZM461.012 333.081V333.092H461V333.081H461.012Z" stroke="white" stroke-width="3" stroke-linejoin="round"/>
<path d="M469.335 282.629V282.64H469.324V282.629H469.335ZM477.659 282.629V282.64H477.647V282.629H477.659ZM461.012 282.629V282.64H461V282.629H461.012Z" stroke="white" stroke-width="3" stroke-linejoin="round"/>
<path d="M469.335 383.532V383.543H469.324V383.532H469.335ZM477.659 383.532V383.543H477.647V383.532H477.659ZM461.012 383.532V383.543H461V383.532H461.012Z" stroke="white" stroke-width="3" stroke-linejoin="round"/>
<path d="M494.306 258.019V258.03H494.294V258.019H494.306ZM502.63 258.019V258.03H502.618V258.019H502.63ZM485.983 258.019V258.03H485.971V258.019H485.983Z" stroke="white" stroke-width="3" stroke-linejoin="round"/>
<path d="M494.306 358.921V358.933H494.294V358.921H494.306ZM502.63 358.921V358.933H502.618V358.921H502.63ZM485.983 358.921V358.933H485.971V358.921H485.983Z" stroke="white" stroke-width="3" stroke-linejoin="round"/>
<path d="M494.306 308.47V308.481H494.294V308.47H494.306ZM502.63 308.47V308.481H502.618V308.47H502.63ZM485.983 308.47V308.481H485.971V308.47H485.983Z" stroke="white" stroke-width="3" stroke-linejoin="round"/>
<path d="M494.306 409.373V409.384H494.294V409.373H494.306ZM502.63 409.373V409.384H502.618V409.373H502.63ZM485.983 409.373V409.384H485.971V409.373H485.983Z" stroke="white" stroke-width="3" stroke-linejoin="round"/>
<path d="M469.335 258.019V258.03H469.324V258.019H469.335ZM477.659 258.019V258.03H477.647V258.019H477.659ZM461.012 258.019V258.03H461V258.019H461.012Z" stroke="white" stroke-width="3" stroke-linejoin="round"/>
<path d="M469.335 358.921V358.933H469.324V358.921H469.335ZM477.659 358.921V358.933H477.647V358.921H477.659ZM461.012 358.921V358.933H461V358.921H461.012Z" stroke="white" stroke-width="3" stroke-linejoin="round"/>
<path d="M469.335 308.47V308.481H469.324V308.47H469.335ZM477.659 308.47V308.481H477.647V308.47H477.659ZM461.012 308.47V308.481H461V308.47H461.012Z" stroke="white" stroke-width="3" stroke-linejoin="round"/>
<path d="M469.335 409.373V409.384H469.324V409.373H469.335ZM477.659 409.373V409.384H477.647V409.373H477.659ZM461.012 409.373V409.384H461V409.373H461.012Z" stroke="white" stroke-width="3" stroke-linejoin="round"/>
<path d="M494.306 240.791V240.802H494.294V240.791H494.306ZM502.63 240.791V240.802H502.618V240.791H502.63ZM485.983 240.791V240.802H485.971V240.791H485.983Z" stroke="white" stroke-width="3" stroke-linejoin="round"/>
<path d="M494.306 341.694V341.705H494.294V341.694H494.306ZM502.63 341.694V341.705H502.618V341.694H502.63ZM485.983 341.694V341.705H485.971V341.694H485.983Z" stroke="white" stroke-width="3" stroke-linejoin="round"/>
<path d="M494.306 291.243V291.254H494.294V291.243H494.306ZM502.63 291.243V291.254H502.618V291.243H502.63ZM485.983 291.243V291.254H485.971V291.243H485.983Z" stroke="white" stroke-width="3" stroke-linejoin="round"/>
<path d="M494.306 392.146V392.157H494.294V392.146H494.306ZM502.63 392.146V392.157H502.618V392.146H502.63ZM485.983 392.146V392.157H485.971V392.146H485.983Z" stroke="white" stroke-width="3" stroke-linejoin="round"/>
<path d="M469.335 240.791V240.802H469.324V240.791H469.335ZM477.659 240.791V240.802H477.647V240.791H477.659ZM461.012 240.791V240.802H461V240.791H461.012Z" stroke="white" stroke-width="3" stroke-linejoin="round"/>
<path d="M469.335 341.694V341.705H469.324V341.694H469.335ZM477.659 341.694V341.705H477.647V341.694H477.659ZM461.012 341.694V341.705H461V341.694H461.012Z" stroke="white" stroke-width="3" stroke-linejoin="round"/>
<path d="M469.335 291.243V291.254H469.324V291.243H469.335ZM477.659 291.243V291.254H477.647V291.243H477.659ZM461.012 291.243V291.254H461V291.243H461.012Z" stroke="white" stroke-width="3" stroke-linejoin="round"/>
<path d="M469.335 392.146V392.157H469.324V392.146H469.335ZM477.659 392.146V392.157H477.647V392.146H477.659ZM461.012 392.146V392.157H461V392.146H461.012Z" stroke="white" stroke-width="3" stroke-linejoin="round"/>
<path d="M494.306 266.632V266.643H494.294V266.632H494.306ZM502.63 266.632V266.643H502.618V266.632H502.63ZM485.983 266.632V266.643H485.971V266.632H485.983Z" stroke="white" stroke-width="3" stroke-linejoin="round"/>
<path d="M494.306 367.535V367.546H494.294V367.535H494.306ZM502.63 367.535V367.546H502.618V367.535H502.63ZM485.983 367.535V367.546H485.971V367.535H485.983Z" stroke="white" stroke-width="3" stroke-linejoin="round"/>
<path d="M494.306 317.084V317.095H494.294V317.084H494.306ZM502.63 317.084V317.095H502.618V317.084H502.63ZM485.983 317.084V317.095H485.971V317.084H485.983Z" stroke="white" stroke-width="3" stroke-linejoin="round"/>
<path d="M494.306 417.987V417.998H494.294V417.987H494.306ZM502.63 417.987V417.998H502.618V417.987H502.63ZM485.983 417.987V417.998H485.971V417.987H485.983Z" stroke="white" stroke-width="3" stroke-linejoin="round"/>
<path d="M469.335 266.632V266.643H469.324V266.632H469.335ZM477.659 266.632V266.643H477.647V266.632H477.659ZM461.012 266.632V266.643H461V266.632H461.012Z" stroke="white" stroke-width="3" stroke-linejoin="round"/>
<path d="M469.335 367.535V367.546H469.324V367.535H469.335ZM477.659 367.535V367.546H477.647V367.535H477.659ZM461.012 367.535V367.546H461V367.535H461.012Z" stroke="white" stroke-width="3" stroke-linejoin="round"/>
<path d="M469.335 317.084V317.095H469.324V317.084H469.335ZM477.659 317.084V317.095H477.647V317.084H477.659ZM461.012 317.084V317.095H461V317.084H461.012Z" stroke="white" stroke-width="3" stroke-linejoin="round"/>
<path d="M469.335 417.987V417.998H469.324V417.987H469.335ZM477.659 417.987V417.998H477.647V417.987H477.659ZM461.012 417.987V417.998H461V417.987H461.012Z" stroke="white" stroke-width="3" stroke-linejoin="round"/>
<path d="M594.184 223.564V223.575H594.172V223.564H594.184ZM602.508 223.564V223.575H602.496V223.564H602.508ZM585.861 223.564V223.575H585.849V223.564H585.861Z" stroke="white" stroke-width="3" stroke-linejoin="round"/>
<path d="M594.184 324.467V324.478H594.172V324.467H594.184ZM602.508 324.467V324.478H602.496V324.467H602.508ZM585.861 324.467V324.478H585.849V324.467H585.861Z" stroke="white" stroke-width="3" stroke-linejoin="round"/>
<path d="M594.184 274.015V274.027H594.172V274.015H594.184ZM602.508 274.015V274.027H602.496V274.015H602.508ZM585.861 274.015V274.027H585.849V274.015H585.861Z" stroke="white" stroke-width="3" stroke-linejoin="round"/>
<path d="M594.184 374.919V374.93H594.172V374.919H594.184ZM602.508 374.919V374.93H602.496V374.919H602.508ZM585.861 374.919V374.93H585.849V374.919H585.861Z" stroke="white" stroke-width="3" stroke-linejoin="round"/>
<path d="M569.214 223.564V223.575H569.202V223.564H569.214ZM577.537 223.564V223.575H577.525V223.564H577.537ZM560.89 223.564V223.575H560.878V223.564H560.89Z" stroke="white" stroke-width="3" stroke-linejoin="round"/>
<path d="M569.214 324.467V324.478H569.202V324.467H569.214ZM577.537 324.467V324.478H577.525V324.467H577.537ZM560.89 324.467V324.478H560.878V324.467H560.89Z" stroke="white" stroke-width="3" stroke-linejoin="round"/>
<path d="M569.214 274.015V274.027H569.202V274.015H569.214ZM577.537 274.015V274.027H577.525V274.015H577.537ZM560.89 274.015V274.027H560.878V274.015H560.89Z" stroke="white" stroke-width="3" stroke-linejoin="round"/>
<path d="M569.214 374.919V374.93H569.202V374.919H569.214ZM577.537 374.919V374.93H577.525V374.919H577.537ZM560.89 374.919V374.93H560.878V374.919H560.89Z" stroke="white" stroke-width="3" stroke-linejoin="round"/>
<path d="M594.184 249.405V249.416H594.172V249.405H594.184ZM602.508 249.405V249.416H602.496V249.405H602.508ZM585.861 249.405V249.416H585.849V249.405H585.861Z" stroke="white" stroke-width="3" stroke-linejoin="round"/>
<path d="M594.184 350.308V350.319H594.172V350.308H594.184ZM602.508 350.308V350.319H602.496V350.308H602.508ZM585.861 350.308V350.319H585.849V350.308H585.861Z" stroke="white" stroke-width="3" stroke-linejoin="round"/>
<path d="M594.184 299.856V299.867H594.172V299.856H594.184ZM602.508 299.856V299.867H602.496V299.856H602.508ZM585.861 299.856V299.867H585.849V299.856H585.861Z" stroke="white" stroke-width="3" stroke-linejoin="round"/>
<path d="M594.184 400.759V400.77H594.172V400.759H594.184ZM602.508 400.759V400.77H602.496V400.759H602.508ZM585.861 400.759V400.77H585.849V400.759H585.861Z" stroke="white" stroke-width="3" stroke-linejoin="round"/>
<path d="M569.214 249.405V249.416H569.202V249.405H569.214ZM577.537 249.405V249.416H577.525V249.405H577.537ZM560.89 249.405V249.416H560.878V249.405H560.89Z" stroke="white" stroke-width="3" stroke-linejoin="round"/>
<path d="M569.214 350.308V350.319H569.202V350.308H569.214ZM577.537 350.308V350.319H577.525V350.308H577.537ZM560.89 350.308V350.319H560.878V350.308H560.89Z" stroke="white" stroke-width="3" stroke-linejoin="round"/>
<path d="M569.214 299.856V299.867H569.202V299.856H569.214ZM577.537 299.856V299.867H577.525V299.856H577.537ZM560.89 299.856V299.867H560.878V299.856H560.89Z" stroke="white" stroke-width="3" stroke-linejoin="round"/>
<path d="M569.214 400.759V400.77H569.202V400.759H569.214ZM577.537 400.759V400.77H577.525V400.759H577.537ZM560.89 400.759V400.77H560.878V400.759H560.89Z" stroke="white" stroke-width="3" stroke-linejoin="round"/>
<path d="M594.184 232.178V232.189H594.172V232.178H594.184ZM602.508 232.178V232.189H602.496V232.178H602.508ZM585.861 232.178V232.189H585.849V232.178H585.861Z" stroke="white" stroke-width="3" stroke-linejoin="round"/>
<path d="M594.184 333.081V333.092H594.172V333.081H594.184ZM602.508 333.081V333.092H602.496V333.081H602.508ZM585.861 333.081V333.092H585.849V333.081H585.861Z" stroke="white" stroke-width="3" stroke-linejoin="round"/>
<path d="M594.184 282.629V282.64H594.172V282.629H594.184ZM602.508 282.629V282.64H602.496V282.629H602.508ZM585.861 282.629V282.64H585.849V282.629H585.861Z" stroke="white" stroke-width="3" stroke-linejoin="round"/>
<path d="M594.184 383.532V383.543H594.172V383.532H594.184ZM602.508 383.532V383.543H602.496V383.532H602.508ZM585.861 383.532V383.543H585.849V383.532H585.861Z" stroke="white" stroke-width="3" stroke-linejoin="round"/>
<path d="M569.214 232.178V232.189H569.202V232.178H569.214ZM577.537 232.178V232.189H577.525V232.178H577.537ZM560.89 232.178V232.189H560.878V232.178H560.89Z" stroke="white" stroke-width="3" stroke-linejoin="round"/>
<path d="M569.214 333.081V333.092H569.202V333.081H569.214ZM577.537 333.081V333.092H577.525V333.081H577.537ZM560.89 333.081V333.092H560.878V333.081H560.89Z" stroke="white" stroke-width="3" stroke-linejoin="round"/>
<path d="M569.214 282.629V282.64H569.202V282.629H569.214ZM577.537 282.629V282.64H577.525V282.629H577.537ZM560.89 282.629V282.64H560.878V282.629H560.89Z" stroke="white" stroke-width="3" stroke-linejoin="round"/>
<path d="M569.214 383.532V383.543H569.202V383.532H569.214ZM577.537 383.532V383.543H577.525V383.532H577.537ZM560.89 383.532V383.543H560.878V383.532H560.89Z" stroke="white" stroke-width="3" stroke-linejoin="round"/>
<path d="M594.184 258.019V258.03H594.172V258.019H594.184ZM602.508 258.019V258.03H602.496V258.019H602.508ZM585.861 258.019V258.03H585.849V258.019H585.861Z" stroke="white" stroke-width="3" stroke-linejoin="round"/>
<path d="M594.184 358.921V358.933H594.172V358.921H594.184ZM602.508 358.921V358.933H602.496V358.921H602.508ZM585.861 358.921V358.933H585.849V358.921H585.861Z" stroke="white" stroke-width="3" stroke-linejoin="round"/>
<path d="M594.184 308.47V308.481H594.172V308.47H594.184ZM602.508 308.47V308.481H602.496V308.47H602.508ZM585.861 308.47V308.481H585.849V308.47H585.861Z" stroke="white" stroke-width="3" stroke-linejoin="round"/>
<path d="M594.184 409.373V409.384H594.172V409.373H594.184ZM602.508 409.373V409.384H602.496V409.373H602.508ZM585.861 409.373V409.384H585.849V409.373H585.861Z" stroke="white" stroke-width="3" stroke-linejoin="round"/>
<path d="M569.214 258.019V258.03H569.202V258.019H569.214ZM577.537 258.019V258.03H577.525V258.019H577.537ZM560.89 258.019V258.03H560.878V258.019H560.89Z" stroke="white" stroke-width="3" stroke-linejoin="round"/>
<path d="M569.214 358.921V358.933H569.202V358.921H569.214ZM577.537 358.921V358.933H577.525V358.921H577.537ZM560.89 358.921V358.933H560.878V358.921H560.89Z" stroke="white" stroke-width="3" stroke-linejoin="round"/>
<path d="M569.214 308.47V308.481H569.202V308.47H569.214ZM577.537 308.47V308.481H577.525V308.47H577.537ZM560.89 308.47V308.481H560.878V308.47H560.89Z" stroke="white" stroke-width="3" stroke-linejoin="round"/>
<path d="M569.214 409.373V409.384H569.202V409.373H569.214ZM577.537 409.373V409.384H577.525V409.373H577.537ZM560.89 409.373V409.384H560.878V409.373H560.89Z" stroke="white" stroke-width="3" stroke-linejoin="round"/>
<path d="M594.184 240.791V240.802H594.172V240.791H594.184ZM602.508 240.791V240.802H602.496V240.791H602.508ZM585.861 240.791V240.802H585.849V240.791H585.861Z" stroke="white" stroke-width="3" stroke-linejoin="round"/>
<path d="M594.184 341.694V341.705H594.172V341.694H594.184ZM602.508 341.694V341.705H602.496V341.694H602.508ZM585.861 341.694V341.705H585.849V341.694H585.861Z" stroke="white" stroke-width="3" stroke-linejoin="round"/>
<path d="M594.184 291.243V291.254H594.172V291.243H594.184ZM602.508 291.243V291.254H602.496V291.243H602.508ZM585.861 291.243V291.254H585.849V291.243H585.861Z" stroke="white" stroke-width="3" stroke-linejoin="round"/>
<path d="M594.184 392.146V392.157H594.172V392.146H594.184ZM602.508 392.146V392.157H602.496V392.146H602.508ZM585.861 392.146V392.157H585.849V392.146H585.861Z" stroke="white" stroke-width="3" stroke-linejoin="round"/>
<path d="M569.214 240.791V240.802H569.202V240.791H569.214ZM577.537 240.791V240.802H577.525V240.791H577.537ZM560.89 240.791V240.802H560.878V240.791H560.89Z" stroke="white" stroke-width="3" stroke-linejoin="round"/>
<path d="M569.214 341.694V341.705H569.202V341.694H569.214ZM577.537 341.694V341.705H577.525V341.694H577.537ZM560.89 341.694V341.705H560.878V341.694H560.89Z" stroke="white" stroke-width="3" stroke-linejoin="round"/>
<path d="M569.214 291.243V291.254H569.202V291.243H569.214ZM577.537 291.243V291.254H577.525V291.243H577.537ZM560.89 291.243V291.254H560.878V291.243H560.89Z" stroke="white" stroke-width="3" stroke-linejoin="round"/>
<path d="M569.214 392.146V392.157H569.202V392.146H569.214ZM577.537 392.146V392.157H577.525V392.146H577.537ZM560.89 392.146V392.157H560.878V392.146H560.89Z" stroke="white" stroke-width="3" stroke-linejoin="round"/>
<path d="M594.184 266.632V266.643H594.172V266.632H594.184ZM602.508 266.632V266.643H602.496V266.632H602.508ZM585.861 266.632V266.643H585.849V266.632H585.861Z" stroke="white" stroke-width="3" stroke-linejoin="round"/>
<path d="M594.184 367.535V367.546H594.172V367.535H594.184ZM602.508 367.535V367.546H602.496V367.535H602.508ZM585.861 367.535V367.546H585.849V367.535H585.861Z" stroke="white" stroke-width="3" stroke-linejoin="round"/>
<path d="M594.184 317.084V317.095H594.172V317.084H594.184ZM602.508 317.084V317.095H602.496V317.084H602.508ZM585.861 317.084V317.095H585.849V317.084H585.861Z" stroke="white" stroke-width="3" stroke-linejoin="round"/>
<path d="M594.184 417.987V417.998H594.172V417.987H594.184ZM602.508 417.987V417.998H602.496V417.987H602.508ZM585.861 417.987V417.998H585.849V417.987H585.861Z" stroke="white" stroke-width="3" stroke-linejoin="round"/>
<path d="M569.214 266.632V266.643H569.202V266.632H569.214ZM577.537 266.632V266.643H577.525V266.632H577.537ZM560.89 266.632V266.643H560.878V266.632H560.89Z" stroke="white" stroke-width="3" stroke-linejoin="round"/>
<path d="M569.214 367.535V367.546H569.202V367.535H569.214ZM577.537 367.535V367.546H577.525V367.535H577.537ZM560.89 367.535V367.546H560.878V367.535H560.89Z" stroke="white" stroke-width="3" stroke-linejoin="round"/>
<path d="M569.214 317.084V317.095H569.202V317.084H569.214ZM577.537 317.084V317.095H577.525V317.084H577.537ZM560.89 317.084V317.095H560.878V317.084H560.89Z" stroke="white" stroke-width="3" stroke-linejoin="round"/>
<path d="M569.214 417.987V417.998H569.202V417.987H569.214ZM577.537 417.987V417.998H577.525V417.987H577.537ZM560.89 417.987V417.998H560.878V417.987H560.89Z" stroke="white" stroke-width="3" stroke-linejoin="round"/>
<path d="M378 245.019L403 224V419.775L378 448V245.019Z" fill="#FEFDFE"/>
<path d="M605 458L605 423L407 423L380 454.5L605 458Z" fill="#FEFDFE"/>
<path d="M6 76L3 79L3 357L6 360H332L335 357V79L332 76L6 76Z" stroke="white" stroke-width="6" stroke-linejoin="bevel"/>
<rect x="46" y="344" width="103" height="86" fill="white" stroke="white" stroke-width="8" stroke-linejoin="bevel"/>
<defs>
<linearGradient id="paint0_linear_169_208" x1="271" y1="272" x2="356" y2="272" gradientUnits="userSpaceOnUse">
<stop stop-color="white" stop-opacity="0"/>
<stop offset="1" stop-color="white"/>
</linearGradient>
</defs>
</svg>
