<svg width="165" height="138" viewBox="0 0 165 138" fill="none" xmlns="http://www.w3.org/2000/svg">
<path fill-rule="evenodd" clip-rule="evenodd" d="M142 0H113V29.0453L84.6792 10.6457C83.3539 9.78475 81.646 9.78475 80.3208 10.6457L1.82078 61.6457C-0.0317297 62.8493 -0.557822 65.3267 0.645718 67.1792C1.84926 69.0317 4.32667 69.5578 6.17918 68.3543L23 57.4261V138H68V88H109V138H142V57.4261L158.821 68.3543C160.673 69.5578 163.151 69.0317 164.354 67.1792C165.558 65.3267 165.032 62.8493 163.179 61.6457L142 47.886V0ZM42 77V60H46H67V74V77H42Z" fill="white"/>
</svg>
