<?xml version="1.0" encoding="UTF-8"?>
<svg id="_레이어_1" data-name="레이어 1" xmlns="http://www.w3.org/2000/svg" viewBox="0 0 282.89 144.02">
  <defs>
    <style>
      .cls-1 {
        fill: #5c98d1;
      }

      .cls-1, .cls-2 {
        stroke-width: 0px;
      }

      .cls-2 {
        fill: red;
      }

      .cls-3 {
        fill: none;
        stroke: #5c98d1;
        stroke-miterlimit: 10;
        stroke-width: 4px;
      }
    </style>
  </defs>
  <path class="cls-1" d="m162.31,56.98v25.73l-.91-.71c-4.07-3.17-8.94-4.85-14.1-4.85-12.66,0-22.96,10.3-22.96,22.96s10.3,22.97,22.96,22.97,22.96-10.3,22.96-22.97v-43.13h-7.95Zm.25,43.13c0,8.29-6.98,15.03-15.26,15.03s-15.02-6.74-15.02-15.03,6.74-15.02,15.02-15.02,14.96,6.46,15.26,14.46v.57Z"/>
  <path class="cls-1" d="m216.9,56.98v25.73l-.91-.71c-4.07-3.17-8.95-4.85-14.1-4.85-12.66,0-22.96,10.3-22.96,22.96s10.3,22.97,22.96,22.97,22.96-10.3,22.96-22.97v-43.13h-7.95Zm.25,43.13c0,8.29-6.98,15.03-15.26,15.03s-15.02-6.74-15.02-15.03,6.74-15.02,15.02-15.02,14.96,6.46,15.26,14.46v.57Z"/>
  <path class="cls-1" d="m257.13,77.15c-12.66,0-22.96,10.3-22.96,22.96v43.91h7.94v-26.5l.92.71c4.07,3.17,8.94,4.85,14.1,4.85,12.66,0,22.96-10.3,22.96-22.96s-10.3-22.96-22.96-22.96Zm0,37.99c-8.02,0-14.96-6.46-15.27-14.46v-.57c0-8.28,6.98-15.03,15.27-15.03s15.02,6.74,15.02,15.03-6.74,15.02-15.02,15.02Z"/>
  <path class="cls-2" d="m162.31,56.98v25.73l-.91-.71c-4.07-3.17-8.94-4.85-14.1-4.85-12.66,0-22.96,10.3-22.96,22.96s10.3,22.97,22.96,22.97,22.96-10.3,22.96-22.97v-43.13h-7.95Zm.25,43.13c0,8.29-6.98,15.03-15.26,15.03s-15.02-6.74-15.02-15.03,6.74-15.02,15.02-15.02,14.96,6.46,15.26,14.46v.57Z"/>
  <path class="cls-2" d="m216.9,56.98v25.73l-.91-.71c-4.07-3.17-8.95-4.85-14.1-4.85-12.66,0-22.96,10.3-22.96,22.96s10.3,22.97,22.96,22.97,22.96-10.3,22.96-22.97v-43.13h-7.95Zm.25,43.13c0,8.29-6.98,15.03-15.26,15.03s-15.02-6.74-15.02-15.03,6.74-15.02,15.02-15.02,14.96,6.46,15.26,14.46v.57Z"/>
  <path class="cls-2" d="m257.13,77.15c-12.66,0-22.96,10.3-22.96,22.96v43.91h7.94v-26.5l.92.71c4.07,3.17,8.94,4.85,14.1,4.85,12.66,0,22.96-10.3,22.96-22.96s-10.3-22.96-22.96-22.96Zm0,37.99c-8.02,0-14.96-6.46-15.27-14.46v-.57c0-8.28,6.98-15.03,15.27-15.03s15.02,6.74,15.02,15.03-6.74,15.02-15.02,15.02Z"/>
  <circle class="cls-1" cx="7.17" cy="29.43" r="7.17"/>
  <circle class="cls-1" cx="275.71" cy="24.01" r="7.17"/>
  <path class="cls-3" d="m5.8,32.95s67.26-6.46,115.77-22.55c0,0,61.25-15.65,70.2.35,0,0,5.7,3.89,0,13.77,0,0-14.8,19.77,14.82,20.3,0,0,32.68.08,70.47-20.3"/>
  <path class="cls-3" d="m7.17,31.85s20.87-5.22,30.64-11.83c10.4-6.48,26.76-13.58,39.5-13.23,4.8.49,7.82,5.6,6.25,10.31-17.07,69.6,96.81-56.28,193.52,8.97"/>
  <path class="cls-3" d="m9.56,33.32s56.65,28.21,146.59-2.09c0,0,73.42-19.6,120.93-3.68"/>
  <path class="cls-2" d="m275.92,18.92c-2.16,0-4.08,1.06-5.36,2.73-24.16-12.13-47.44-16.47-68.39-16.47-3.15,0-6.24.11-9.28.29-2.72-2.2-6.77-3.73-12.11-4.55-23.31-3.59-52.21,4-82.81,12.04-3.11.82-6.23,1.64-9.36,2.45,0-3.55-1.47-6.51-3.87-8.26-2.41-1.8-5.58-2.53-9.16-2.54-1.1,0-2.24.07-3.42.21-11.32,1.36-25.94,9.55-33.94,13.57-9.55,4.83-17.42,7.43-22.89,8.82-.67.17-1.31.32-1.9.46-1.05-2.73-3.53-4.66-6.44-4.66C3.14,23.01.02,26.39.02,30.55s3.12,7.54,6.97,7.54c2.42,0,4.55-1.33,5.8-3.36,23.27,8.82,43.3,12.07,61.64,12.07,24.66,0,46.25-5.87,68.52-11.92,14.71-4,29.63-8.05,45.9-10.6-3.33,5.19-3.73,10.59-.99,14.7,2.31,3.45,7.69,7.27,20.25,7.27,1.76,0,3.65-.08,5.71-.23,14.46-1.13,33.39-6.3,56.33-15.35,1.25,2,3.37,3.32,5.78,3.32,3.85,0,6.97-3.37,6.97-7.54s-3.12-7.54-6.97-7.54Zm-79.55-8.68c-.17-.47-.38-.92-.62-1.36,2.11-.09,4.25-.14,6.41-.14,18.75,0,39.36,3.53,60.84,13.2-25.85-4.77-47.71-4.66-67.43-2.18,1.86-4.21,1.57-7.39.8-9.52Zm-108.17,8.91c3.52-.91,7.03-1.83,10.53-2.75,30.28-7.95,58.89-15.47,81.57-11.98,2.41.37,4.5.9,6.29,1.55-30.52,3.07-54.63,14.36-67.17,20.85-16.02,8.29-25.31,9.58-29.49,9.57-1.02,0-1.74-.08-2.18-.14-.22-.04-.38-.07-.46-.09-.03,0-.06-.01-.07-.02h-.02s-.02-.01-.02-.01c-1.56-.46-2.39-1.08-2.82-1.64-.44-.57-.6-1.16-.61-2-.05-2.13,1.54-5.28,2.53-7.45.92-2.12,1.56-4.08,1.94-5.9Zm-48.59,2.47c8.01-4.08,22.62-12.08,32.9-13.26,1.07-.12,2.09-.19,3.06-.19,3.17,0,5.7.7,7.29,1.9,1.58,1.22,2.42,2.79,2.45,5.46,0,.23,0,.48-.02.73-19.77,5.09-39.93,9.77-60.2,11.65,4.25-1.52,9.13-3.56,14.53-6.29Zm102.53,9.84c-37.88,10.29-73.76,20.03-126.35.66,23.22-1.09,46.24-6.26,68.76-12.03-.32,1.06-.74,2.21-1.28,3.44-.83,1.98-2.79,5.34-2.84,8.97,0,1.44.38,3.01,1.39,4.29,1,1.29,2.5,2.21,4.48,2.79.27.08,1.43.39,3.62.39,4.81,0,14.57-1.46,30.92-9.92,13.05-6.76,38.69-18.73,70.93-20.94.71.74,1.23,1.55,1.54,2.43,1.02,2.81-.14,6.03-1.76,8.77-17.64,2.54-33.64,6.87-49.41,11.16Zm72.26,11.04c-15.75,1.25-20.99-2.96-22.71-5.58-2.08-3.16-1.4-7.48,1.85-11.84.37-.5.7-.98,1.02-1.46,21.43-2.98,45.37-3.12,74.4,3.1,0,.21.02.43.04.64-22.31,8.93-40.66,14.03-54.6,15.14Z"/>
</svg>