<svg width="39" height="39" viewBox="0 0 39 39" fill="none" xmlns="http://www.w3.org/2000/svg">
<path d="M19.5 0.75C21.9623 0.75 24.4005 1.23498 26.6753 2.17726C28.9502 3.11953 31.0172 4.50065 32.7583 6.24175C34.4994 7.98285 35.8805 10.0498 36.8227 12.3247C37.765 14.5995 38.25 17.0377 38.25 19.5C38.25 24.4728 36.2746 29.2419 32.7583 32.7583C29.2419 36.2746 24.4728 38.25 19.5 38.25C17.0377 38.25 14.5995 37.765 12.3247 36.8227C10.0498 35.8805 7.98285 34.4994 6.24175 32.7583C2.72544 29.2419 0.75 24.4728 0.75 19.5C0.75 14.5272 2.72544 9.75805 6.24175 6.24175C9.75805 2.72544 14.5272 0.75 19.5 0.75ZM17.625 10.125C16.6304 10.125 15.6766 10.5201 14.9734 11.2233C14.2701 11.9266 13.875 12.8804 13.875 13.875V25.125C13.875 26.1196 14.2701 27.0734 14.9734 27.7766C15.6766 28.4799 16.6304 28.875 17.625 28.875V32.625H21.375V28.875C22.3696 28.875 23.3234 28.4799 24.0266 27.7766C24.7299 27.0734 25.125 26.1196 25.125 25.125V13.875C25.125 12.8804 24.7299 11.9266 24.0266 11.2233C23.3234 10.5201 22.3696 10.125 21.375 10.125H17.625ZM17.625 13.875H21.375V25.125H17.625V13.875Z" fill="#FFD100"/>
</svg>
