<svg width="161" height="155" viewBox="0 0 161 155" fill="none" xmlns="http://www.w3.org/2000/svg">
<path fill-rule="evenodd" clip-rule="evenodd" d="M149.306 74.7692V91.1191C146.18 83.9289 139.928 78.4121 132.265 76.2852C131.748 76.1418 131.225 76.0138 130.696 75.9017C130.607 75.8829 130.518 75.8645 130.429 75.8466V75.1983C130.429 72.8288 128.508 70.9079 126.138 70.9079H116.699C114.33 70.9079 112.409 72.8288 112.409 75.1983V127.541C112.409 129.911 114.33 131.832 116.699 131.832H126.138C128.508 131.832 130.429 129.911 130.429 127.541V127.296C130.518 127.278 130.607 127.259 130.696 127.241C140.952 125.068 148.995 116.905 150.992 106.585C151.624 106.348 152.203 106.001 152.705 105.568C152.791 105.539 152.877 105.505 152.96 105.466L154.728 104.65C155.426 105.426 155.851 106.453 155.851 107.58V124.967C155.851 136.989 146.106 146.735 134.083 146.735H102.97V146.419C102.97 144.524 101.433 142.987 99.5376 142.987H88.3825C86.4869 142.987 84.9502 144.524 84.9502 146.419V151.568C84.9502 153.463 86.4869 155 88.3825 155H99.5376C101.327 155 102.796 153.631 102.956 151.884H134.083C148.949 151.884 161 139.833 161 124.967V107.58C161 105.524 160.349 103.621 159.243 102.065C159.474 101.675 159.603 101.223 159.603 100.751V74.7692C159.603 33.7764 126.372 0.545074 85.3792 0.545074H74.2242C33.2313 0.545074 0 33.7764 0 74.7692V102.536C0 103.773 0.878885 104.834 2.09344 105.065L7.20429 106.037C7.54358 106.257 7.90775 106.441 8.29164 106.585C10.2885 116.905 18.3321 125.068 28.5877 127.241C28.6768 127.259 28.7659 127.278 28.8552 127.296V127.541C28.8552 129.911 30.7761 131.832 33.1456 131.832H33.4652H42.5846H42.9041C45.2737 131.832 47.1946 129.911 47.1946 127.541V75.1983C47.1946 72.8288 45.2737 70.9079 42.9041 70.9079H42.5846H33.4652H33.1456C30.7761 70.9079 28.8552 72.8288 28.8552 75.1983V75.8465C28.7659 75.8645 28.6767 75.8829 28.5877 75.9017C28.0587 76.0138 27.5356 76.1418 27.0189 76.2852C19.6088 78.3419 13.5175 83.5685 10.297 90.4129V74.7692C10.297 39.4632 38.9182 10.8421 74.2242 10.8421H85.3792C120.685 10.8421 149.306 39.4632 149.306 74.7692Z" fill="white"/>
</svg>
