<svg width="147" height="147" viewBox="0 0 147 147" fill="none" xmlns="http://www.w3.org/2000/svg">
<path fill-rule="evenodd" clip-rule="evenodd" d="M93.2019 0L104.602 11.3999C101.283 19.8677 103.045 29.8664 109.888 36.7087C116.73 43.5509 126.729 45.3129 135.196 41.9946L146.596 53.3944L125.224 74.7669C125.173 74.5165 125.05 74.2779 124.856 74.0837L121.096 70.3239C120.57 69.7974 119.716 69.7974 119.189 70.3239C118.663 70.8505 118.663 71.7043 119.189 72.2309L122.949 75.9906C123.143 76.1848 123.382 76.3074 123.632 76.3583L53.3945 146.596L42.0965 135.298C45.5977 126.759 43.8812 116.583 36.9471 109.649C30.013 102.715 19.837 100.999 11.298 104.5L4.31126e-05 93.2019L70.0802 23.1217L70.3132 23.3546C70.8398 23.8812 71.6935 23.8812 72.2201 23.3546C72.7467 22.8281 72.7467 21.9743 72.2201 21.4477L71.9872 21.2147L93.2019 0ZM74.0729 25.2074C74.5995 24.6808 75.4532 24.6808 75.9798 25.2074L79.7395 28.9671C80.2661 29.4937 80.2661 30.3475 79.7395 30.8741C79.2129 31.4007 78.3592 31.4007 77.8326 30.8741L74.0729 27.1144C73.5463 26.5878 73.5463 25.734 74.0729 25.2074ZM81.5923 32.7268C82.1189 32.2002 82.9727 32.2002 83.4992 32.7268L87.259 36.4865C87.7855 37.0131 87.7855 37.8669 87.259 38.3935C86.7324 38.9201 85.8786 38.9201 85.352 38.3935L81.5923 34.6338C81.0657 34.1072 81.0657 33.2534 81.5923 32.7268ZM89.1117 40.2463C89.6383 39.7197 90.4921 39.7197 91.0187 40.2463L94.7784 44.006C95.305 44.5325 95.305 45.3863 94.7784 45.9129C94.2518 46.4395 93.398 46.4395 92.8714 45.9129L89.1117 42.1532C88.5851 41.6266 88.5851 40.7728 89.1117 40.2463ZM96.6311 47.7657C97.1577 47.2391 98.0115 47.2391 98.5381 47.7657L102.298 51.5254C102.824 52.052 102.824 52.9057 102.298 53.4323C101.771 53.9589 100.917 53.9589 100.391 53.4323L96.6311 49.6726C96.1046 49.146 96.1046 48.2923 96.6311 47.7657ZM104.151 55.2851C104.677 54.7585 105.531 54.7585 106.058 55.2851L109.817 59.0448C110.344 59.5714 110.344 60.4252 109.817 60.9517C109.291 61.4783 108.437 61.4783 107.91 60.9517L104.151 57.192C103.624 56.6655 103.624 55.8117 104.151 55.2851ZM111.67 62.8045C112.197 62.2779 113.05 62.2779 113.577 62.8045L117.337 66.5642C117.863 67.0908 117.863 67.9446 117.337 68.4712C116.81 68.9978 115.956 68.9978 115.43 68.4712L111.67 64.7115C111.143 64.1849 111.143 63.3311 111.67 62.8045ZM25.5054 82.952L69.3651 39.0923L107.504 77.2312L63.6443 121.091L25.5054 82.952ZM21.6915 82.952L69.3651 35.2785L111.318 77.2312L63.6443 124.905L21.6915 82.952Z" fill="white"/>
</svg>
