<?xml version="1.0" encoding="utf-8"?>
<!-- Generator: Adobe Illustrator 27.9.0, SVG Export Plug-In . SVG Version: 6.00 Build 0)  -->
<svg version="1.1" id="레이어_1" xmlns="http://www.w3.org/2000/svg" xmlns:xlink="http://www.w3.org/1999/xlink" x="0px"
	 y="0px" viewBox="0 0 261 68" style="enable-background:new 0 0 261 68;" xml:space="preserve">
<style type="text/css">
	.st0{fill:#FFEE32;}
	.st1{fill:none;stroke:#EEC170;stroke-width:2;stroke-opacity:0.5;}
	.st2{fill:#FFFFFF;filter:url(#Adobe_OpacityMaskFilter);}
	.st3{mask:url(#path-5-inside-1_42_25_00000090260156446003172430000006989098545413629079_);fill:#EEC170;fill-opacity:0.5;}
</style>
<path class="st0" d="M17.7,3.8C4.9,11.9-1.5,23.1,0.3,38.9c1.6,13.4,10,22.6,20.9,26.2c12.4,4.1,26.7,5.2,37.5-6.7
	c7.4-8.1,15-16,24.2-25.8c-8.6-8.4-16.5-16.1-24.6-23.7C48.7,0,28.4-2.9,17.7,3.8z"/>
<path class="st1" d="M1.3,38.8L1.3,38.8c-0.9-7.7,0.2-14.3,3.1-19.9c2.9-5.6,7.5-10.3,13.8-14.3c5.1-3.2,12.5-4.1,20-3.2
	c7.5,1,14.8,3.9,19.4,8.2c6.3,5.9,12.5,11.9,19,18.2c1.6,1.6,3.2,3.2,4.9,4.8c-2.5,2.6-4.8,5.1-7,7.5C68.5,46.4,63.2,52,58,57.8l0,0
	c-10.4,11.4-24.2,10.5-36.5,6.4l0,0C11,60.7,2.8,51.8,1.3,38.8z"/>
<path class="st0" d="M296.8,30.8c-1.3-14.5-8.7-23.2-20.3-28.1c-11.3-4.8-23.1-3.6-32.6,6.6c-7.6,8.2-15.9,15.8-24,23.7
	c-11.1-6.1-17.9-15.2-25.9-23.1c-6.6-6.5-13.8-9.6-23-9.4c-12.9,0.4-25.9,0.5-38.9-0.1c-10-0.4-17.6,3.1-24.2,10.4
	c-6.9,7.6-14.6,14.5-22.8,22.4c9.3,9.4,16.9,16.8,24.1,24.7c5.8,6.4,12.5,9.4,21.4,9.1c13.5-0.5,27-0.5,40.5,0
	c9.4,0.4,16.5-2.9,22.9-9.5c7.9-7.9,15-16.8,24.3-22.6c1.2,0.3,1.8,0.3,2.2,0.6c8.1,7.7,16.3,15.5,24.4,23.3
	c4.3,4.1,8.7,7.1,15.2,8.1C279.3,69.9,298.9,53.5,296.8,30.8z"/>
<path class="st0" d="M82.9,32.6c0.5,0.5,1,1,1.5,1.4c0.3-0.3,0.6-0.5,0.8-0.8c-0.5-0.5-1-1-1.5-1.5C83.4,32.1,83.2,32.4,82.9,32.6z"
	/>
<defs>
	<filter id="Adobe_OpacityMaskFilter" filterUnits="userSpaceOnUse" x="80.2" y="29.1" width="7.9" height="7.7">
		<feColorMatrix  type="matrix" values="1 0 0 0 0  0 1 0 0 0  0 0 1 0 0  0 0 0 1 0"/>
	</filter>
</defs>
<mask maskUnits="userSpaceOnUse" x="80.2" y="29.1" width="7.9" height="7.7" id="path-5-inside-1_42_25_00000090260156446003172430000006989098545413629079_">
	<path class="st2" d="M82.9,32.6c0.5,0.5,1,1,1.5,1.4c0.3-0.3,0.6-0.5,0.8-0.8c-0.5-0.5-1-1-1.5-1.5C83.4,32.1,83.2,32.4,82.9,32.6z
		"/>
</mask>
<path class="st3" d="M82.9,32.6l-1.5-1.3l-1.3,1.4l1.4,1.3L82.9,32.6z M84.4,34.1L83,35.6l1.3,1.2l1.4-1.2L84.4,34.1z M85.2,33.3
	l1.4,1.4l1.4-1.4l-1.3-1.4L85.2,33.3z M83.7,31.8l1.4-1.4l-1.3-1.3l-1.4,1.2L83.7,31.8z M81.5,34.1c0.5,0.5,1,1,1.5,1.5l2.7-2.9
	c-0.5-0.5-1-0.9-1.4-1.4L81.5,34.1z M85.7,35.6c0.3-0.3,0.6-0.6,0.9-0.9l-2.8-2.8c-0.3,0.3-0.5,0.5-0.7,0.7L85.7,35.6z M86.7,31.9
	c-0.5-0.5-1-1-1.5-1.6l-2.8,2.8c0.5,0.5,1,1,1.4,1.5L86.7,31.9z M82.4,30.3c-0.4,0.3-0.7,0.7-1,1l3,2.7c0.3-0.3,0.5-0.5,0.6-0.7
	L82.4,30.3z"/>
</svg>
