<svg width="141" height="43" viewBox="0 0 141 43" fill="none" xmlns="http://www.w3.org/2000/svg">
<path d="M140.415 15.0526C138.678 7.40867 129.201 0.393034 120.017 0.35115C100.184 0.225497 80.3517 0.413976 60.5191 0.246439C54.5567 0.183612 49.8914 2.00558 45.7073 6.3825C40.7492 11.5552 36.1467 17.2934 28.0923 22.0892C25.1215 18.4033 22.1299 15.0107 19.5148 11.3458C12.4437 1.35638 2.63199 -0.69596 -8.87429 0.183612C-21.4684 1.12601 -29.0417 8.70709 -28.9998 21.7331C-28.958 34.5498 -21.1546 42.6753 -8.64417 42.8638C-5.50609 42.9057 -2.36801 42.6334 0.749146 42.9266C6.04203 43.4083 10.1006 41.5026 13.6989 37.6701C18.678 32.3718 23.9918 27.3666 30.7701 20.6441C36.586 26.864 41.858 32.3718 46.9835 38.0052C50.268 41.6073 54.1383 42.9895 59.0337 42.9476C79.9124 42.78 100.791 42.8848 121.67 42.8638C124.096 42.8638 126.523 42.8848 128.804 41.7329C137.695 37.1885 142.799 25.5446 140.415 15.0526Z" fill="#D6D6D6" fill-opacity="0.5"/>
</svg>
