<?xml version="1.0" encoding="utf-8"?>
<!-- Generator: Adobe Illustrator 27.9.0, SVG Export Plug-In . SVG Version: 6.00 Build 0)  -->
<svg version="1.1" id="레이어_1" xmlns="http://www.w3.org/2000/svg" xmlns:xlink="http://www.w3.org/1999/xlink" x="0px"
	 y="0px" viewBox="0 0 141 43" style="enable-background:new 0 0 141 43;" xml:space="preserve">
<style type="text/css">
	.st0{fill:none;stroke:#FFEE32;}
</style>
<path class="st0" d="M120,0.9L120,0.9c-9.3-0.1-18.6,0-27.9,0c-10.5,0-21.1,0-31.6-0.1l0,0c-5.8-0.1-10.4,1.7-14.4,6l0,0
	c-0.8,0.9-1.7,1.8-2.5,2.6c-3.5,3.7-7.1,7.6-12.2,11.2 M120,0.9c4.5,0,9,1.7,12.7,4.4c3.7,2.7,6.4,6.2,7.2,9.9
	c2.3,10.3-2.7,21.7-11.4,26.1 M120,0.9l0-0.5c9.2,0,18.7,7.1,20.4,14.7c2.4,10.5-2.7,22.1-11.6,26.7 M31.4,20.6
	c1.8,1.9,3.5,3.8,5.2,5.6c3.7,4,7.3,7.7,10.7,11.5 M31.4,20.6c-0.1,0.1-0.3,0.2-0.4,0.3l0.2,0.2c0,0,0,0,0,0L31.4,20.6z M47.4,37.7
	L47,38 M47.4,37.7C47.4,37.7,47.4,37.7,47.4,37.7L47,38 M47.4,37.7c3.2,3.5,6.9,4.8,11.7,4.8h0c14.3-0.1,28.6-0.1,42.9-0.1
	c6.6,0,13.2,0,19.8,0h0h0.1c2.4,0,4.7,0,6.8-1.1 M47,38c3.3,3.6,7.2,5,12.1,4.9c14.3-0.1,28.6-0.1,42.9-0.1c6.6,0,13.2,0,19.8,0h0.1
	c2.4,0,4.8,0,7-1.1 M128.6,41.3C128.6,41.3,128.6,41.3,128.6,41.3l0.2,0.4 M128.6,41.3C128.6,41.3,128.6,41.3,128.6,41.3l0.2,0.4
	 M28,22.7c-1.2,1.2-2.4,2.3-3.5,3.4c-4.1,4-7.7,7.5-11.1,11.2l0,0c-3.5,3.7-7.4,5.6-12.5,5.1c-1.6-0.1-3.2-0.2-4.7-0.1
	c-0.5,0-0.9,0-1.4,0c-1.1,0-2.2,0-3.3,0c-6.1-0.1-11.1-2.1-14.5-5.7c-3.4-3.5-5.3-8.6-5.4-15c0-6.4,1.8-11.4,5.2-15
	C-20,3.2-15,1.1-8.8,0.7l0,0c5.7-0.4,11-0.1,15.7,1.5c4.7,1.6,8.8,4.6,12.3,9.5l0,0c1.8,2.6,3.8,5,5.9,7.5c0.9,1.1,1.8,2.2,2.7,3.3
	L28,22.7z"/>
</svg>
