<svg id="Layer_1" data-name="Layer 1" xmlns="http://www.w3.org/2000/svg" viewBox="0 0 532.45 482.78"><defs><style>.cls-1{fill:none;stroke:#fff;stroke-linecap:round;stroke-miterlimit:10;stroke-width:15px;}</style></defs><path class="cls-1" d="M567,168c23.06,21.7,42,47,38.89,54.12-20.14,45.52-97.75,200.65-212.49,181.53-96.51-16.09-102.63-.64-98.44,9.32a16,16,0,0,0,8.95,8.56c34.56,13.67,276.22,110.28,270.55,136.73-6.1,28.48-4.07,50.86-154.61,14.24s-219.72,22.38-297-103.75c-77-125.6-12.76-114,86.2-210.33a16.29,16.29,0,0,1,3.44-2.58c8.32-4.62,41.53-19.21,115.83-8.84,65.61,9.15,69.42-17.17,67.23-30.9-.84-5.28,8.41-39.06,23.64-49.46L475,128.5a16.43,16.43,0,0,1,21.1-1.58S543.9,146.3,567,168Z" transform="translate(-81.23 -116.32)"/></svg>