<svg id="Layer_1" data-name="Layer 1" xmlns="http://www.w3.org/2000/svg" viewBox="0 0 548.51 485.84"><defs><style>.cls-1{fill:none;stroke:#fff;stroke-linecap:round;stroke-miterlimit:10;stroke-width:15px;}</style></defs><path class="cls-1" d="M149.67,590.48c-20.37-24.24-36.27-51.6-32.32-58.29,25.3-42.86,120.43-187.91,232.17-155.56,94,27.21,101.85,12.58,98.85,2.2a16,16,0,0,0-7.89-9.55C407.75,351.68,179,227.61,187.68,202c9.38-27.58,10-50,155.22,3.85s220.83,3.34,282.93,137.62c61.83,133.69-.6,114.73-110.1,198.86a16.27,16.27,0,0,1-3.72,2.16c-8.8,3.63-43.48,14.25-116.07-4.7-64.09-16.73-70.94,9-70.36,22.86.22,5.35-12.9,37.83-29.24,46.38L236.39,640.4a16.43,16.43,0,0,1-21.14-.88S170.05,614.71,149.67,590.48Z" transform="translate(-109.24 -165.49)"/></svg>